<svg width="139" height="194" viewBox="0 0 139 194" fill="none" xmlns="http://www.w3.org/2000/svg">
<path d="M116.937 178.546C116.937 187.081 96.6863 194 71.7063 194C46.7264 194 26.4762 187.081 26.4762 178.546C26.4762 170.011 46.7264 163.092 71.7063 163.092C96.6863 163.092 116.937 170.011 116.937 178.546Z" fill="#1E6CA4"/>
<path d="M69.5 177.709L21.645 118.823H117.355L69.5 177.709Z" fill="#B9E506"/>
<path fill-rule="evenodd" clip-rule="evenodd" d="M69.1767 178.356L118.002 118.823H20.675L69.1767 178.356ZM69.1767 172.157L110.565 118.823L27.7886 118.823L69.1767 172.157Z" fill="white"/>
<path d="M136.756 69.9677C136.756 106.242 107.368 135.648 71.1167 135.648C34.8654 135.648 5.47783 106.242 5.47783 69.9677C5.47783 33.6937 34.8654 4.28786 71.1167 4.28786C107.368 4.28786 136.756 33.6937 136.756 69.9677Z" fill="#B9E506"/>
<path d="M69.5 0C31.1772 0 0 31.1967 0 69.5434C0 107.89 31.1772 139.087 69.5 139.087C107.823 139.087 139 107.89 139 69.5434C139 31.1967 107.823 0 69.5 0ZM69.5 5.56338C85.3451 5.56338 99.8505 11.3731 111.033 20.9584C99.455 30.8913 84.8507 36.3866 69.5 36.3866C54.1529 36.3866 39.5476 30.8907 27.9673 20.9579C39.1495 11.3728 53.6552 5.56338 69.5 5.56338ZM69.5 133.523C53.6554 133.523 39.15 127.714 27.9675 118.129C39.5456 108.195 54.1495 102.698 69.5 102.698C84.8479 102.698 99.4521 108.194 111.034 118.127C99.8511 127.713 85.3454 133.523 69.5 133.523ZM115.121 114.312C102.458 103.255 86.3929 97.1351 69.5 97.1351C52.6071 97.1351 36.542 103.256 23.8803 114.313C12.5592 102.765 5.55991 86.9596 5.55991 69.5431C5.55991 52.1269 12.5589 36.3216 23.8801 24.7733C36.5437 35.8297 52.608 41.9499 69.5 41.9499C86.3929 41.9499 102.461 35.8291 115.12 24.7736C126.441 36.3219 133.44 52.1271 133.44 69.5431C133.44 86.959 126.441 102.763 115.121 114.312Z" fill="white"/>
<path d="M69.1768 172.532L27.7886 118.502H69.1768L111.211 118.176L69.1768 172.532Z" fill="#B9E506"/>
</svg>
