<svg width="310" height="82" viewBox="0 0 310 82" fill="none" xmlns="http://www.w3.org/2000/svg">
<path d="M62.208 23.152H69.28L74.624 38.864H74.688L79.744 23.152H86.816V46H82.112V29.808H82.048L76.448 46H72.576L66.976 29.968H66.912V46H62.208V23.152ZM90.5673 34.544C90.6313 33.4773 90.8979 32.592 91.3673 31.888C91.8366 31.184 92.4339 30.6187 93.1593 30.192C93.8846 29.7653 94.6953 29.4667 95.5913 29.296C96.5086 29.104 97.4259 29.008 98.3433 29.008C99.1753 29.008 100.018 29.072 100.871 29.2C101.725 29.3067 102.503 29.5307 103.207 29.872C103.911 30.2133 104.487 30.6933 104.935 31.312C105.383 31.9093 105.607 32.7093 105.607 33.712V42.32C105.607 43.0667 105.65 43.7813 105.735 44.464C105.821 45.1467 105.97 45.6587 106.183 46H101.575C101.49 45.744 101.415 45.488 101.351 45.232C101.309 44.9547 101.277 44.6773 101.255 44.4C100.53 45.1467 99.6766 45.6693 98.6953 45.968C97.7139 46.2667 96.7113 46.416 95.6873 46.416C94.8979 46.416 94.1619 46.32 93.4793 46.128C92.7966 45.936 92.1993 45.6373 91.6873 45.232C91.1753 44.8267 90.7699 44.3147 90.4713 43.696C90.1939 43.0773 90.0553 42.3413 90.0553 41.488C90.0553 40.5493 90.2153 39.7813 90.5353 39.184C90.8766 38.5653 91.3033 38.0747 91.8153 37.712C92.3486 37.3493 92.9459 37.0827 93.6073 36.912C94.2899 36.72 94.9726 36.5707 95.6553 36.464C96.3379 36.3573 97.0099 36.272 97.6713 36.208C98.3326 36.144 98.9193 36.048 99.4313 35.92C99.9433 35.792 100.349 35.6107 100.647 35.376C100.946 35.12 101.085 34.7573 101.063 34.288C101.063 33.7973 100.978 33.4133 100.807 33.136C100.658 32.8373 100.445 32.6133 100.167 32.464C99.9113 32.2933 99.6019 32.1867 99.2393 32.144C98.8979 32.08 98.5246 32.048 98.1193 32.048C97.2233 32.048 96.5193 32.24 96.0073 32.624C95.4953 33.008 95.1966 33.648 95.1113 34.544H90.5673ZM101.063 37.904C100.871 38.0747 100.626 38.2133 100.327 38.32C100.05 38.4053 99.7406 38.48 99.3993 38.544C99.0793 38.608 98.7379 38.6613 98.3753 38.704C98.0126 38.7467 97.6499 38.8 97.2873 38.864C96.9459 38.928 96.6046 39.0133 96.2633 39.12C95.9433 39.2267 95.6553 39.376 95.3993 39.568C95.1646 39.7387 94.9726 39.9627 94.8233 40.24C94.6739 40.5173 94.5993 40.8693 94.5993 41.296C94.5993 41.7013 94.6739 42.0427 94.8233 42.32C94.9726 42.5973 95.1753 42.8213 95.4313 42.992C95.6873 43.1413 95.9859 43.248 96.3273 43.312C96.6686 43.376 97.0206 43.408 97.3833 43.408C98.2793 43.408 98.9726 43.2587 99.4633 42.96C99.9539 42.6613 100.317 42.3093 100.551 41.904C100.786 41.4773 100.925 41.0507 100.967 40.624C101.031 40.1973 101.063 39.856 101.063 39.6V37.904ZM114.894 29.456H118.222V32.496H114.894V40.688C114.894 41.456 115.022 41.968 115.278 42.224C115.534 42.48 116.046 42.608 116.814 42.608C117.07 42.608 117.316 42.5973 117.55 42.576C117.785 42.5547 118.009 42.5227 118.222 42.48V46C117.838 46.064 117.412 46.1067 116.942 46.128C116.473 46.1493 116.014 46.16 115.566 46.16C114.862 46.16 114.19 46.1067 113.55 46C112.932 45.9147 112.377 45.7333 111.886 45.456C111.417 45.1787 111.044 44.784 110.766 44.272C110.489 43.76 110.35 43.088 110.35 42.256V32.496H107.598V29.456H110.35V24.496H114.894V29.456ZM131.648 35.28C131.35 33.3813 130.23 32.432 128.288 32.432C127.563 32.432 126.955 32.6027 126.464 32.944C125.974 33.264 125.568 33.6907 125.248 34.224C124.95 34.736 124.736 35.312 124.608 35.952C124.48 36.5707 124.416 37.1893 124.416 37.808C124.416 38.4053 124.48 39.0133 124.608 39.632C124.736 40.2507 124.939 40.816 125.216 41.328C125.515 41.8187 125.91 42.224 126.4 42.544C126.891 42.864 127.488 43.024 128.192 43.024C129.28 43.024 130.112 42.7253 130.688 42.128C131.286 41.5093 131.659 40.688 131.808 39.664H136.192C135.894 41.8613 135.04 43.536 133.632 44.688C132.224 45.84 130.422 46.416 128.224 46.416C126.987 46.416 125.846 46.2133 124.8 45.808C123.776 45.3813 122.902 44.7947 122.176 44.048C121.451 43.3013 120.886 42.416 120.48 41.392C120.075 40.3467 119.872 39.2053 119.872 37.968C119.872 36.688 120.054 35.504 120.416 34.416C120.8 33.3067 121.355 32.3573 122.08 31.568C122.806 30.7573 123.691 30.128 124.736 29.68C125.782 29.232 126.976 29.008 128.32 29.008C129.302 29.008 130.24 29.136 131.136 29.392C132.054 29.648 132.864 30.0427 133.568 30.576C134.294 31.088 134.88 31.7387 135.328 32.528C135.776 33.296 136.032 34.2133 136.096 35.28H131.648ZM138.759 23.152H143.303V31.76H143.399C143.975 30.8 144.711 30.1067 145.607 29.68C146.503 29.232 147.378 29.008 148.231 29.008C149.447 29.008 150.439 29.1787 151.207 29.52C151.997 29.84 152.615 30.2987 153.063 30.896C153.511 31.472 153.821 32.1867 153.991 33.04C154.183 33.872 154.279 34.8 154.279 35.824V46H149.735V36.656C149.735 35.2907 149.522 34.2773 149.095 33.616C148.669 32.9333 147.911 32.592 146.823 32.592C145.586 32.592 144.69 32.9653 144.135 33.712C143.581 34.4373 143.303 35.6427 143.303 37.328V46H138.759V23.152Z" fill="#B9E506"/>
<path d="M160.48 34.352H167.968C169.483 34.352 170.709 33.968 171.648 33.2C172.587 32.432 173.056 31.2587 173.056 29.68C173.056 28.1013 172.587 26.928 171.648 26.16C170.709 25.392 169.483 25.008 167.968 25.008H160.48V34.352ZM158.304 23.152H168.448C169.472 23.152 170.4 23.3013 171.232 23.6C172.064 23.8773 172.779 24.304 173.376 24.88C173.973 25.4347 174.432 26.1173 174.752 26.928C175.072 27.7387 175.232 28.656 175.232 29.68C175.232 30.704 175.072 31.6213 174.752 32.432C174.432 33.2427 173.973 33.936 173.376 34.512C172.779 35.0667 172.064 35.4933 171.232 35.792C170.4 36.0693 169.472 36.208 168.448 36.208H160.48V46H158.304V23.152ZM185.052 30.704C184.092 30.704 183.25 30.9067 182.524 31.312C181.799 31.7173 181.191 32.2507 180.7 32.912C180.231 33.5733 179.868 34.3307 179.612 35.184C179.378 36.016 179.26 36.8693 179.26 37.744C179.26 38.6187 179.378 39.4827 179.612 40.336C179.868 41.168 180.231 41.9147 180.7 42.576C181.191 43.2373 181.799 43.7707 182.524 44.176C183.25 44.5813 184.092 44.784 185.052 44.784C186.012 44.784 186.855 44.5813 187.58 44.176C188.306 43.7707 188.903 43.2373 189.372 42.576C189.863 41.9147 190.226 41.168 190.46 40.336C190.716 39.4827 190.844 38.6187 190.844 37.744C190.844 36.8693 190.716 36.016 190.46 35.184C190.226 34.3307 189.863 33.5733 189.372 32.912C188.903 32.2507 188.306 31.7173 187.58 31.312C186.855 30.9067 186.012 30.704 185.052 30.704ZM185.052 29.008C186.311 29.008 187.42 29.2427 188.38 29.712C189.362 30.1813 190.183 30.8107 190.844 31.6C191.506 32.3893 192.007 33.3173 192.348 34.384C192.69 35.4293 192.86 36.5493 192.86 37.744C192.86 38.9387 192.69 40.0693 192.348 41.136C192.007 42.1813 191.506 43.0987 190.844 43.888C190.183 44.6773 189.362 45.3067 188.38 45.776C187.42 46.224 186.311 46.448 185.052 46.448C183.794 46.448 182.674 46.224 181.692 45.776C180.732 45.3067 179.922 44.6773 179.26 43.888C178.599 43.0987 178.098 42.1813 177.756 41.136C177.415 40.0693 177.244 38.9387 177.244 37.744C177.244 36.5493 177.415 35.4293 177.756 34.384C178.098 33.3173 178.599 32.3893 179.26 31.6C179.922 30.8107 180.732 30.1813 181.692 29.712C182.674 29.2427 183.794 29.008 185.052 29.008ZM195.89 23.152H197.906V26.384H195.89V23.152ZM195.89 29.488H197.906V46H195.89V29.488ZM201.732 29.488H203.748V32.336H203.812C204.196 31.3333 204.878 30.5333 205.86 29.936C206.841 29.3173 207.918 29.008 209.092 29.008C210.244 29.008 211.204 29.1573 211.972 29.456C212.761 29.7547 213.39 30.1813 213.86 30.736C214.329 31.2693 214.66 31.9307 214.852 32.72C215.044 33.5093 215.14 34.3947 215.14 35.376V46H213.124V35.696C213.124 34.992 213.06 34.3413 212.932 33.744C212.804 33.1253 212.58 32.592 212.26 32.144C211.94 31.696 211.502 31.344 210.948 31.088C210.414 30.832 209.742 30.704 208.932 30.704C208.121 30.704 207.396 30.8533 206.756 31.152C206.137 31.4293 205.604 31.824 205.156 32.336C204.729 32.8267 204.388 33.424 204.132 34.128C203.897 34.8107 203.769 35.5573 203.748 36.368V46H201.732V29.488ZM222.151 29.488H225.511V31.184H222.151V42.32C222.151 42.9813 222.237 43.504 222.407 43.888C222.599 44.2507 223.058 44.4533 223.783 44.496C224.359 44.496 224.935 44.464 225.511 44.4V46.096C225.213 46.096 224.914 46.1067 224.615 46.128C224.317 46.1493 224.018 46.16 223.719 46.16C222.375 46.16 221.437 45.904 220.903 45.392C220.37 44.8587 220.114 43.888 220.135 42.48V31.184H217.255V29.488H220.135V24.528H222.151V29.488Z" fill="#F5F5F5"/>
<ellipse cx="30.5042" cy="55.4622" rx="10.3361" ry="3.52941" fill="#1E6CA4"/>
<path d="M34.6652 44.8487L29.9999 50.6667L25.3347 44.8487L34.6652 44.8487Z" fill="#B9E506" stroke="white" stroke-width="6"/>
<circle cx="30.3782" cy="30.6302" r="15" fill="#B9E506"/>
<path d="M30 14.6858C21.2424 14.6858 14.1177 21.8105 14.1177 30.5681C14.1177 39.3258 21.2424 46.4505 30 46.4505C38.7577 46.4505 45.8824 39.3258 45.8824 30.5681C45.8824 21.8105 38.7577 14.6858 30 14.6858ZM30 15.9563C33.621 15.9563 36.9358 17.2832 39.4913 19.4723C36.8454 21.7407 33.508 22.9957 30 22.9957C26.4929 22.9957 23.1552 21.7406 20.5088 19.4721C23.0642 17.2831 26.3791 15.9563 30 15.9563ZM30 45.1798C26.3792 45.1798 23.0644 43.8531 20.5089 41.664C23.1548 39.3953 26.4921 38.1401 30 38.1401C33.5074 38.1401 36.8448 39.3952 39.4915 41.6638C36.936 43.853 33.6211 45.1798 30 45.1798ZM40.4255 40.7923C37.5317 38.2672 33.8604 36.8695 30 36.8695C26.1396 36.8695 22.4684 38.2674 19.5749 40.7927C16.9877 38.1553 15.3882 34.5456 15.3882 30.568C15.3882 26.5905 16.9877 22.9809 19.5748 20.3435C22.4688 22.8686 26.1398 24.2663 30 24.2663C33.8604 24.2663 37.5323 22.8684 40.4253 20.3436C43.0124 22.981 44.6118 26.5906 44.6118 30.568C44.6117 34.5455 43.0124 38.1549 40.4255 40.7923Z" fill="white"/>
<path d="M30.7563 51.9328L22.0233 41.5336L39.4893 41.5336L30.7563 51.9328Z" fill="#B9E506"/>
<path d="M30.7563 51.9328L22.0233 41.5336L39.4893 41.5336L30.7563 51.9328Z" stroke="white"/>
<path d="M29.2437 51.9328L20.5107 41.5336L37.9768 41.5336L29.2437 51.9328Z" fill="#B9E506"/>
<path d="M29.2437 51.9328L20.5107 41.5336L37.9768 41.5336L29.2437 51.9328Z" stroke="white"/>
</svg>
