<svg width="998" height="203" viewBox="0 0 998 203" fill="none" xmlns="http://www.w3.org/2000/svg">
<text fill="#F5F5F5" xml:space="preserve"  font-family="Avenir" font-size="140" font-weight="300" letter-spacing="0em"><tspan x="592.148" y="151.88">Points</tspan></text>
<text fill="#B9E506" xml:space="preserve" style="white-space: pre" font-family="Avenir" font-size="140" font-weight="800" letter-spacing="0em"><tspan x="185" y="151.88">Match</tspan></text>
<text xml:space="preserve" style="white-space: pre" font-family="Avenir" font-size="140" font-weight="300" letter-spacing="0em"><tspan x="592.148" y="151.88">Points</tspan></text>
<text xml:space="preserve" style="white-space: pre" font-family="Avenir" font-size="140" font-weight="800" letter-spacing="0em"><tspan x="185" y="151.88">Match</tspan></text>
<path d="M117.896 178.546C117.896 187.081 97.6462 194 72.6663 194C47.6864 194 27.4361 187.081 27.4361 178.546C27.4361 170.011 47.6864 163.092 72.6663 163.092C97.6462 163.092 117.896 170.011 117.896 178.546Z" fill="#1E6CA4"/>
<path d="M70.46 177.709L22.605 118.823H118.315L70.46 177.709Z" fill="#B9E506"/>
<path fill-rule="evenodd" clip-rule="evenodd" d="M70.1366 178.356L118.962 118.823H21.635L70.1366 178.356ZM70.1366 172.157L111.525 118.823L28.7485 118.823L70.1366 172.157Z" fill="white"/>
<path d="M137.716 69.9677C137.716 106.242 108.328 135.648 72.0767 135.648C35.8253 135.648 6.43779 106.242 6.43779 69.9677C6.43779 33.6937 35.8253 4.28786 72.0767 4.28786C108.328 4.28786 137.716 33.6937 137.716 69.9677Z" fill="#B9E506"/>
<path d="M70.46 0C32.1372 0 0.959961 31.1967 0.959961 69.5434C0.959961 107.89 32.1372 139.087 70.46 139.087C108.783 139.087 139.96 107.89 139.96 69.5434C139.96 31.1967 108.783 0 70.46 0ZM70.46 5.56338C86.3051 5.56338 100.81 11.3731 111.993 20.9584C100.415 30.8913 85.8107 36.3866 70.46 36.3866C55.1129 36.3866 40.5075 30.8907 28.9272 20.9579C40.1094 11.3728 54.6151 5.56338 70.46 5.56338ZM70.46 133.523C54.6154 133.523 40.11 127.714 28.9275 118.129C40.5056 108.195 55.1095 102.698 70.46 102.698C85.8079 102.698 100.412 108.194 111.994 118.127C100.811 127.713 86.3054 133.523 70.46 133.523ZM116.081 114.312C103.418 103.255 87.3529 97.1351 70.46 97.1351C53.5671 97.1351 37.502 103.256 24.8403 114.313C13.5192 102.765 6.51987 86.9596 6.51987 69.5431C6.51987 52.1269 13.5189 36.3216 24.84 24.7733C37.5037 35.8297 53.5679 41.9499 70.46 41.9499C87.3529 41.9499 103.42 35.8291 116.08 24.7736C127.401 36.3219 134.4 52.1271 134.4 69.5431C134.4 86.959 127.401 102.763 116.081 114.312Z" fill="white"/>
<path d="M70.1368 172.532L28.7486 118.502H70.1368L112.171 118.176L70.1368 172.532Z" fill="#B9E506"/>
</svg>
